<svg id="Account_icon" xmlns="http://www.w3.org/2000/svg" width="24" height="24" viewBox="0 0 24 24">
  <path id="Path_98" data-name="Path 98" d="M24,11.988A12,12,0,1,0,4.248,21.123c.024.024.048.024.048.048.216.168.432.336.672.5a3.338,3.338,0,0,1,.336.262,11.976,11.976,0,0,0,13.442,0c.118-.071.214-.166.334-.239.216-.167.456-.335.672-.5.024-.024.048-.024.048-.048A12.2,12.2,0,0,0,24,11.987ZM12,22.49a10.419,10.419,0,0,1-6.024-1.918A4.9,4.9,0,0,1,6.1,20a6.255,6.255,0,0,1,.624-1.486,5.278,5.278,0,0,1,.96-1.224A6.74,6.74,0,0,1,8.9,16.328a6.057,6.057,0,0,1,1.464-.6,6.367,6.367,0,0,1,6.024,1.534,6.012,6.012,0,0,1,1.3,1.942,6.375,6.375,0,0,1,.36,1.367A10.545,10.545,0,0,1,12,22.489ZM8.328,11.39a3.932,3.932,0,0,1,0-3.07,4.09,4.09,0,0,1,2.136-2.132A3.743,3.743,0,0,1,12,5.876a3.665,3.665,0,0,1,1.536.312A4.09,4.09,0,0,1,15.672,8.32a3.74,3.74,0,0,1,.312,1.534,3.649,3.649,0,0,1-.312,1.534,4.085,4.085,0,0,1-2.136,2.134,4.072,4.072,0,0,1-3.1,0,4.26,4.26,0,0,1-1.272-.862,3.789,3.789,0,0,1-.84-1.272Zm11.136,7.959c0-.048-.024-.072-.024-.12a7.83,7.83,0,0,0-1.032-2.109,7.325,7.325,0,0,0-1.632-1.7,7.81,7.81,0,0,0-1.56-.912,4.23,4.23,0,0,0,.7-.575,6.3,6.3,0,0,0,.936-1.176,5.436,5.436,0,0,0,.792-2.9,5.565,5.565,0,0,0-.432-2.2,5.7,5.7,0,0,0-1.224-1.8,5.768,5.768,0,0,0-1.8-1.2,5.871,5.871,0,0,0-4.416,0,5.446,5.446,0,0,0-1.8,1.222,5.76,5.76,0,0,0-1.2,1.8,5.565,5.565,0,0,0-.432,2.205,5.21,5.21,0,0,0,.216,1.51,5.525,5.525,0,0,0,.6,1.391,5.454,5.454,0,0,0,.936,1.176,4.208,4.208,0,0,0,.72.575,7.68,7.68,0,0,0-1.56.936,8.291,8.291,0,0,0-1.632,1.679,7.5,7.5,0,0,0-1.032,2.109.261.261,0,0,0-.024.12,10.5,10.5,0,1,1,17.952-7.385A10.44,10.44,0,0,1,19.464,19.349Z" fill="#fda92b"/>
</svg>
