<svg id="Calendar_icon" xmlns="http://www.w3.org/2000/svg" width="18.091" height="18.091" viewBox="0 0 18.091 18.091">
  <path id="Path_136" data-name="Path 136" d="M18.427,15.914a.565.565,0,0,1,0,.8l-3.392,3.392a.565.565,0,0,1-.8,0l-1.7-1.7a.566.566,0,1,1,.8-.8l1.3,1.3,2.992-2.993a.565.565,0,0,1,.8,0Z" transform="translate(-6.155 -7.834)" fill="#015eaa" fill-rule="evenodd"/>
  <path id="Path_137" data-name="Path 137" d="M1.131,5.642V16.949A1.131,1.131,0,0,0,2.261,18.08H15.83a1.131,1.131,0,0,0,1.131-1.131V5.642ZM2.261,2.25A2.261,2.261,0,0,0,0,4.511V16.949A2.261,2.261,0,0,0,2.261,19.21H15.83a2.261,2.261,0,0,0,2.261-2.261V4.511A2.261,2.261,0,0,0,15.83,2.25Z" transform="translate(0 -1.119)" fill="#015eaa" fill-rule="evenodd"/>
  <path id="Path_138" data-name="Path 138" d="M7.315,0a.565.565,0,0,1,.565.565v.565a.565.565,0,1,1-1.131,0V.565A.565.565,0,0,1,7.315,0ZM17.491,0a.565.565,0,0,1,.565.565v.565a.565.565,0,1,1-1.131,0V.565A.565.565,0,0,1,17.491,0Z" transform="translate(-3.358)" fill="#015eaa" fill-rule="evenodd"/>
</svg>
