<svg xmlns="http://www.w3.org/2000/svg" width="42" height="42" viewBox="0 0 42 42">
  <g id="Call_icon" transform="translate(-275 -165)">
    <circle id="Ellipse_27" data-name="Ellipse 27" cx="21" cy="21" r="21" transform="translate(275 165)" fill="#ededed"/>
    <path id="call" d="M17.315,23.235a7.785,7.785,0,0,1-3.876-1.455,25.562,25.562,0,0,1-6.089-5.016,25.405,25.405,0,0,1-4.572-6.7C1.154,6.81,1.432,5.106,1.741,4.378A4.39,4.39,0,0,1,3.355,2.471a7.553,7.553,0,0,1,1.262-.737l.121-.059a1.086,1.086,0,0,1,.967-.1,2.881,2.881,0,0,1,.919.776,17,17,0,0,1,2.3,3.757,4.033,4.033,0,0,1,.451,1.538,2.556,2.556,0,0,1-.562,1.446c-.057.087-.115.17-.17.25-.335.485-.409.625-.36.876a9.352,9.352,0,0,0,2.035,3.323A7.967,7.967,0,0,0,13.3,15.731c.237.056.367-.029.821-.411.065-.055.133-.112.2-.169a2.127,2.127,0,0,1,1.333-.657h0a3,3,0,0,1,1.4.542,16.845,16.845,0,0,1,3.4,2.512,3.112,3.112,0,0,1,.707,1.009,1.422,1.422,0,0,1-.088,1.067c-.016.04-.035.085-.054.134a8.881,8.881,0,0,1-.674,1.387,4.312,4.312,0,0,1-1.735,1.775A2.743,2.743,0,0,1,17.315,23.235Z" transform="translate(284.495 173.511)" fill="#fda92b"/>
  </g>
</svg>
