<svg id="Chat" xmlns="http://www.w3.org/2000/svg" width="31.509" height="46.404" viewBox="0 0 31.509 35.153">
  <g id="chat-3" data-name="chat" transform="translate(0 -2.25)">
    <path id="Path_49" data-name="Path 49" d="M5.274,23.7a1.969,1.969,0,0,1,.565,1.577,21.6,21.6,0,0,1-.784,3.939,23.247,23.247,0,0,0,5.187-1.758,1.969,1.969,0,0,1,1.4-.145,15.873,15.873,0,0,0,4.115.535c7.869,0,13.785-5.528,13.785-11.816S23.624,4.219,15.754,4.219,1.969,9.749,1.969,16.035a10.82,10.82,0,0,0,3.3,7.668ZM4.3,31.394q-.7.139-1.4.254a.512.512,0,0,1-.537-.713q.262-.618.481-1.254l.006-.019a20.594,20.594,0,0,0,1.032-4.567A12.79,12.79,0,0,1,0,16.035C0,8.421,7.054,2.25,15.754,2.25S31.509,8.421,31.509,16.035,24.455,29.82,15.754,29.82a17.842,17.842,0,0,1-4.622-.6A26.924,26.924,0,0,1,4.3,31.393Z" fill="#93a1af" fill-rule="evenodd"/>
  </g>
</svg>
