<svg xmlns="http://www.w3.org/2000/svg" width="21.488" height="21.488" viewBox="0 0 21.488 21.488">
  <g id="Close_icon" transform="translate(-1.5 -1.5)">
    <path id="Path_124" data-name="Path 124" d="M19.793,12.956a.977.977,0,0,0-1.332-1.429L15.6,14.191l-2.665-2.859a.977.977,0,0,0-1.428,1.332l2.665,2.858-2.859,2.665a.977.977,0,1,0,1.332,1.428l2.858-2.663,2.665,2.858A.977.977,0,1,0,19.6,18.478L16.935,15.62l2.858-2.665Z" transform="translate(-3.31 -3.327)" fill="#fda92b"/>
    <path id="Path_125" data-name="Path 125" d="M1.5,12.244A10.744,10.744,0,1,1,12.244,22.988,10.744,10.744,0,0,1,1.5,12.244Zm10.744,8.791a8.791,8.791,0,1,1,8.791-8.791A8.791,8.791,0,0,1,12.244,21.035Z" fill="#fda92b" fill-rule="evenodd"/>
  </g>
</svg>
