<svg xmlns="http://www.w3.org/2000/svg" width="23.989" height="22.726" viewBox="0 0 23.989 22.726">
  <g id="Contacts_icon" transform="translate(-3 -3)">
    <path id="Path_101" data-name="Path 101" d="M23.2,3H9.313A3.792,3.792,0,0,0,5.525,6.788V8.05H4.263a1.263,1.263,0,0,0,0,2.525H5.525V13.1H4.263a1.263,1.263,0,1,0,0,2.525H5.525v2.525H4.263a1.263,1.263,0,0,0,0,2.525H5.525v1.263a3.792,3.792,0,0,0,3.788,3.788H23.2a3.792,3.792,0,0,0,3.788-3.788V6.788A3.792,3.792,0,0,0,23.2,3ZM8.05,6.788A1.265,1.265,0,0,1,9.313,5.525V8.05H8.05Zm0,3.788H9.313V13.1H8.05Zm0,5.05H9.313v2.525H8.05Zm0,6.313V20.676H9.313V23.2A1.265,1.265,0,0,1,8.05,21.938Zm16.413,0A1.265,1.265,0,0,1,23.2,23.2H10.575V5.525H23.2a1.265,1.265,0,0,1,1.263,1.263Z" fill="#fda92b"/>
    <path id="Path_102" data-name="Path 102" d="M17.05,11.025A2.525,2.525,0,1,1,14.525,8.5,2.525,2.525,0,0,1,17.05,11.025Z" transform="translate(2.363 1.444)" fill="#fda92b"/>
    <path id="Path_103" data-name="Path 103" d="M14.656,13.356c-1.972,0-3.156.9-3.156,1.8,0,.451,1.184.9,3.156.9,1.851,0,3.156-.451,3.156-.9C17.813,14.259,16.575,13.356,14.656,13.356Z" transform="translate(2.232 2.719)" fill="#fda92b"/>
  </g>
</svg>
