<svg xmlns="http://www.w3.org/2000/svg" width="24.019" height="24" viewBox="0 0 24.019 24">
  <path id="Drug_icon" d="M22.2,2.1l-.3-.3A5.676,5.676,0,0,0,17.7,0a6.263,6.263,0,0,0-4.35,1.8L1.8,13.35a5.977,5.977,0,0,0,0,8.55l.3.3A5.676,5.676,0,0,0,6.3,24a6.263,6.263,0,0,0,4.35-1.8l11.7-11.7a5.932,5.932,0,0,0-.15-8.4ZM21.15,9.6,15.3,15.45l-5.25-5.4-5.7,5.7A6.158,6.158,0,0,0,2.85,21a4.527,4.527,0,0,1,0-6.45l11.7-11.7A4.085,4.085,0,0,1,17.7,1.5,4.653,4.653,0,0,1,21,2.85l.3.3A4.555,4.555,0,0,1,22.5,6.3a4.653,4.653,0,0,1-1.35,3.3Z" fill="#015eaa"/>
</svg>
