<svg xmlns="http://www.w3.org/2000/svg" width="24.02" height="20.25" viewBox="0 0 24.02 20.25">
  <path id="EditNotes_icon" d="M17.682,17.982V13.895l2.535-2.535v7.447a2.739,2.739,0,0,1-2.694,2.725H2.694A2.718,2.718,0,0,1,0,18.807V4.008A2.718,2.718,0,0,1,2.694,1.283H17.746v.031l-2.535,2.5H3.549A1.049,1.049,0,0,0,2.535,4.863V17.982A1.021,1.021,0,0,0,3.549,19H16.668A1.021,1.021,0,0,0,17.682,17.982ZM20.09,2.518l2.694,2.694L24.02,3.976,21.326,1.282Zm-9.475,9.507,2.662,2.694,8.588-8.588L19.2,3.437Zm-1.9,4.563,3.676-.982L9.7,12.913Z" transform="translate(0 -1.282)" fill="#fda92b"/>
</svg>
