<svg xmlns="http://www.w3.org/2000/svg" width="20" height="20" viewBox="0 0 20 20">
  <g id="GridView_icon" transform="translate(-176 -153)">
    <path id="Subtraction_11" data-name="Subtraction 11" d="M7,9H2A2,2,0,0,1,0,7V2A2,2,0,0,1,2,0H7A2,2,0,0,1,9,2V7A2,2,0,0,1,7,9ZM2.35,1.35a1,1,0,0,0-1,1v4.3a1,1,0,0,0,1,1h4.3a1,1,0,0,0,1-1V2.35a1,1,0,0,0-1-1Z" transform="translate(176 153)" fill="#fda92b"/>
    <path id="Subtraction_14" data-name="Subtraction 14" d="M7,9H2A2,2,0,0,1,0,7V2A2,2,0,0,1,2,0H7A2,2,0,0,1,9,2V7A2,2,0,0,1,7,9ZM2.35,1.35a1,1,0,0,0-1,1v4.3a1,1,0,0,0,1,1h4.3a1,1,0,0,0,1-1V2.35a1,1,0,0,0-1-1Z" transform="translate(176 164)" fill="#fda92b"/>
    <path id="Subtraction_12" data-name="Subtraction 12" d="M7,9H2A2,2,0,0,1,0,7V2A2,2,0,0,1,2,0H7A2,2,0,0,1,9,2V7A2,2,0,0,1,7,9ZM2.35,1.35a1,1,0,0,0-1,1v4.3a1,1,0,0,0,1,1h4.3a1,1,0,0,0,1-1V2.35a1,1,0,0,0-1-1Z" transform="translate(187 153)" fill="#fda92b"/>
    <path id="Subtraction_13" data-name="Subtraction 13" d="M7,9H2A2,2,0,0,1,0,7V2A2,2,0,0,1,2,0H7A2,2,0,0,1,9,2V7A2,2,0,0,1,7,9ZM2.35,1.35a1,1,0,0,0-1,1v4.3a1,1,0,0,0,1,1h4.3a1,1,0,0,0,1-1V2.35a1,1,0,0,0-1-1Z" transform="translate(187 164)" fill="#fda92b"/>
  </g>
</svg>
