<svg id="Home" xmlns="http://www.w3.org/2000/svg" width="41.139" height="48.153" viewBox="0 0 41.139 35.153">
  <g id="Layer_1-2">
    <g id="TrialPulse_logo_cross_alt">
      <path id="Path_14" data-name="Path 14" d="M37.455,315.037v6.337H29.032v10.508H12.079V321.375H3.629v-3.737c0-1.056-2.654-2.6-3.629-2.6H12.7a1.845,1.845,0,0,1,1.977,1.354l3.358,7.393,5.471-14.9,1.327,3.494c.406.921,1.029,2.654,4.144,2.654h8.477Z" transform="translate(0 -296.73)" fill="#93a1af"/>
      <path id="Path_15" data-name="Path 15" d="M93.56,16.845V10.508h8.423V0h16.954V10.508h8.45v3.738c0,1.056,2.654,2.6,3.629,2.6h-12.7a1.845,1.845,0,0,1-1.977-1.354L113.276,8.1l-5.606,14.9L106.18,19.5c-.6-1.148-1.029-2.654-4.144-2.654H93.56Z" transform="translate(-89.877)" fill="#93a1af"/>
    </g>
  </g>
</svg>
