<svg id="In-Progress_icon" xmlns="http://www.w3.org/2000/svg" width="23.804" height="23.995" viewBox="0 0 23.804 23.995">
  <path id="Path_29" data-name="Path 29" d="M25.776,6.653l1.1-1.313a11.977,11.977,0,0,0-3.584-2.092l-.585,1.61a10.261,10.261,0,0,1,3.068,1.795Z" transform="translate(-7.124 -2.488)" fill="#53acf6"/>
  <path id="Path_30" data-name="Path 30" d="M30.91,14.422l1.686-.354a11.9,11.9,0,0,0-1.4-3.892l-1.483.818a10.729,10.729,0,0,1,1.2,3.428Z" transform="translate(-8.793 -4.138)" fill="#53acf6"/>
  <path id="Path_31" data-name="Path 31" d="M22.707,30.078l.585,1.61A11.977,11.977,0,0,0,26.876,29.6l-1.1-1.313a10.261,10.261,0,0,1-3.068,1.795Z" transform="translate(-7.124 -8.453)" fill="#53acf6"/>
  <path id="Path_32" data-name="Path 32" d="M29.71,23.7l1.483.857a12.118,12.118,0,0,0,1.4-3.931l-1.686-.3A10.414,10.414,0,0,1,29.71,23.7Z" transform="translate(-8.793 -6.557)" fill="#53acf6"/>
  <path id="Path_33" data-name="Path 33" d="M14.247,26.245V2.25a12,12,0,0,0,0,23.995Z" transform="translate(-2.25 -2.25)" fill="#53acf6"/>
</svg>
