<svg id="Info_icon" xmlns="http://www.w3.org/2000/svg" width="24" height="24" viewBox="0 0 24 24">
  <path id="Path_116" data-name="Path 116" d="M15.75,10.125A1.13,1.13,0,0,1,16.875,9h.75a1.13,1.13,0,0,1,1.125,1.125v.75A1.13,1.13,0,0,1,17.625,12h-.75a1.129,1.129,0,0,1-1.125-1.125Z" transform="translate(-5.25 -3)" fill="#fda92b"/>
  <path id="Path_117" data-name="Path 117" d="M19.5,23.25h-6v-1.5H15v-4.5H13.5v-1.5H18v6h1.5Z" transform="translate(-4.5 -5.25)" fill="#fda92b"/>
  <path id="Path_118" data-name="Path 118" d="M12,0A12,12,0,1,0,24,12,12,12,0,0,0,12,0Zm0,21.75A9.75,9.75,0,1,1,21.75,12,9.75,9.75,0,0,1,12,21.75Z" fill="#fda92b"/>
</svg>
