<svg xmlns="http://www.w3.org/2000/svg" width="17" height="24" viewBox="0 0 17 24">
  <g id="IV_icon" transform="translate(-4776.362 -1650.309)">
    <path id="Union_6" data-name="Union 6" d="M7.21,21.643a.412.412,0,0,1-.033-.163V18.359H6.341v-1.4H4.808v1.4H2.334v-1.4H2a2,2,0,0,1-2-2V3.542a2,2,0,0,1,2-2h1.58a2.038,2.038,0,0,1,3.954,0h1.58a2,2,0,0,1,2,2V14.957a2,2,0,0,1-2,2h-.3v1.4h-.8v2.779a1.951,1.951,0,0,0,3.9,0V18.42l0,0a2.543,2.543,0,0,1,5.053-.256.419.419,0,0,1,.03.155v.284a.418.418,0,1,1-.836,0v-.247h-.008a1.707,1.707,0,0,0-3.406.166v2.717h0a2.786,2.786,0,0,1-5.539.4ZM.905,3.452V15.046a1,1,0,0,0,1,1h7.3a1,1,0,0,0,1-1V3.452a1,1,0,0,0-1-1H6.723V2.008a1.167,1.167,0,1,0-2.334,0v.445H1.905A1,1,0,0,0,.905,3.452Z" transform="translate(4776.362 1650.309)" fill="#015eaa"/>
    <rect id="Rectangle_43" data-name="Rectangle 43" width="3" height="1" rx="0.5" transform="translate(4783.362 1654.309)" fill="#015eaa"/>
    <rect id="Rectangle_45" data-name="Rectangle 45" width="3" height="1" rx="0.5" transform="translate(4783.362 1658.309)" fill="#015eaa"/>
    <rect id="Rectangle_44" data-name="Rectangle 44" width="4" height="1" rx="0.5" transform="translate(4782.362 1656.309)" fill="#015eaa"/>
    <circle id="Ellipse_7" data-name="Ellipse 7" cx="0.5" cy="0.5" r="0.5" transform="translate(4781.362 1651.309)" fill="#015eaa"/>
    <path id="Union_4" data-name="Union 4" d="M2.022,6.405A2.022,2.022,0,0,1,0,4.383q0-.09.008-.179H0V.634A3.431,3.431,0,0,1,3.709.456a8.531,8.531,0,0,0,3,1.066,2.759,2.759,0,0,0,1.583-.5V4.2H8.26q.008.088.008.179A2.022,2.022,0,0,1,6.245,6.405Z" transform="translate(4777.526 1659.316)" fill="#015eaa"/>
  </g>
</svg>
