<svg id="More" xmlns="http://www.w3.org/2000/svg" width="31.969" height="36.887" viewBox="0 0 31.969 15.153">
  <path id="more-3" data-name="more" d="M3.984,13.969A3.836,3.836,0,0,1,6.8,15.141a4.073,4.073,0,0,1,0,5.718,3.836,3.836,0,0,1-2.813,1.172,3.836,3.836,0,0,1-2.813-1.172,4.074,4.074,0,0,1,0-5.718,3.834,3.834,0,0,1,2.813-1.172Zm24,0A3.836,3.836,0,0,1,30.8,15.141a4.073,4.073,0,0,1,0,5.718,3.962,3.962,0,0,1-5.626,0,4.074,4.074,0,0,1,0-5.718,3.834,3.834,0,0,1,2.813-1.172Zm-12,0A3.836,3.836,0,0,1,18.8,15.141a4.073,4.073,0,0,1,0,5.718,3.962,3.962,0,0,1-5.626,0,4.074,4.074,0,0,1,0-5.718,3.834,3.834,0,0,1,2.813-1.172Z" transform="translate(0 -13.969)" fill="#93a1af"/>
</svg>
