<svg xmlns="http://www.w3.org/2000/svg" width="22.304" height="24" viewBox="0 0 22.304 24">
  <path id="Needle_icon" d="M12.721,17.794l-1.7-1.684,1.7-1.7,1.684,1.7,1.684-1.7-1.684-1.684,1.684-1.684,1.7,1.684,1.684-1.684L16.09,7.663,7.644,16.11l3.381,3.381,1.7-1.7M3.08,22.358l3.727-3.715L4.275,16.11,16.09,4.283l2.545,2.545,1.672-1.7-1.672-1.7L20.307,1.75l5.077,5.077L23.7,8.5,22,6.827,20.307,8.5l2.545,2.545L11.024,22.859,8.492,20.327,3.08,25.75V22.358Z" transform="translate(-3.08 -1.75)" fill="#015eaa"/>
</svg>
