<svg xmlns="http://www.w3.org/2000/svg" width="16.364" height="18" viewBox="0 0 16.364 18">
  <g id="Notes_icon" transform="translate(-3 -1.5)">
    <path id="Path_139" data-name="Path 139" d="M9,8.318A.818.818,0,0,1,9.818,7.5H18a.818.818,0,0,1,0,1.636H9.818A.818.818,0,0,1,9,8.318Z" transform="translate(-2.727 -2.727)" fill="#fda92b"/>
    <path id="Path_140" data-name="Path 140" d="M9,14.318a.818.818,0,0,1,.818-.818H18a.818.818,0,1,1,0,1.636H9.818A.818.818,0,0,1,9,14.318Z" transform="translate(-2.727 -5.455)" fill="#fda92b"/>
    <path id="Path_141" data-name="Path 141" d="M9.818,19.5a.818.818,0,1,0,0,1.636H18A.818.818,0,0,0,18,19.5Z" transform="translate(-2.727 -8.182)" fill="#fda92b"/>
    <path id="Path_142" data-name="Path 142" d="M9,26.318a.818.818,0,0,1,.818-.818h3.273a.818.818,0,0,1,0,1.636H9.818A.818.818,0,0,1,9,26.318Z" transform="translate(-2.727 -10.909)" fill="#fda92b"/>
    <path id="Path_143" data-name="Path 143" d="M3,3.955A2.455,2.455,0,0,1,5.455,1.5H16.909a2.455,2.455,0,0,1,2.455,2.455V17.045A2.455,2.455,0,0,1,16.909,19.5H5.455A2.455,2.455,0,0,1,3,17.045Zm2.455-.818H16.909a.818.818,0,0,1,.818.818V17.045a.818.818,0,0,1-.818.818H5.455a.818.818,0,0,1-.818-.818V3.955a.818.818,0,0,1,.818-.818Z" transform="translate(0 0)" fill="#fda92b" fill-rule="evenodd"/>
  </g>
</svg>
