<svg xmlns="http://www.w3.org/2000/svg" width="15.076" height="16.813" viewBox="0 0 15.076 16.813">
  <path id="Notification_icon" d="M18.273,12.314l-1.566-1.566V8.082a5.838,5.838,0,0,0-5.218-5.8V1.125H10.331V2.284a5.885,5.885,0,0,0-5.218,5.8v2.667L3.548,12.314a.528.528,0,0,0-.174.406v1.739a.545.545,0,0,0,.58.58H8.012a2.9,2.9,0,1,0,5.8,0h4.058a.545.545,0,0,0,.58-.58V12.72A.528.528,0,0,0,18.273,12.314Zm-7.363,4.464a1.739,1.739,0,0,1-1.739-1.739H12.65A1.739,1.739,0,0,1,10.911,16.778Zm6.377-2.9H4.533v-.928L6.1,11.386a.528.528,0,0,0,.174-.406v-2.9a4.638,4.638,0,1,1,9.276,0v2.9a.528.528,0,0,0,.174.406l1.566,1.566Z" transform="translate(-3.373 -1.125)" fill="#6b6b6b"/>
</svg>
