<svg xmlns="http://www.w3.org/2000/svg" width="19.866" height="19.84" viewBox="0 0 19.866 19.84">
  <path id="Search_icon" d="M19.768,17.991a.3.3,0,0,1,0,.458l-1.319,1.319a.327.327,0,0,1-.431,0l-4.039-4.039a8.758,8.758,0,0,1-3.016,1.481,8.5,8.5,0,0,1-3.581.161,8.064,8.064,0,0,1-2.666-.888,10.09,10.09,0,0,1-2.235-1.642A7.384,7.384,0,0,1,.892,12.552,10.489,10.489,0,0,1,.085,9.859,8.477,8.477,0,0,1,.516,5.82,8.675,8.675,0,0,1,2.588,2.561,9.119,9.119,0,0,1,5.847.515,8.435,8.435,0,0,1,9.886.085a8.725,8.725,0,0,1,4.955,2.4A9.188,9.188,0,0,1,16.51,4.689,8.05,8.05,0,0,1,17.4,7.382a8.281,8.281,0,0,1-.161,3.527,9.347,9.347,0,0,1-1.481,3.07ZM8.755,15a6.089,6.089,0,0,0,2.423-.484,6.33,6.33,0,0,0,3.339-3.339,6.3,6.3,0,0,0,0-4.847,6.33,6.33,0,0,0-3.339-3.339,6.083,6.083,0,0,0-2.423-.484,6.083,6.083,0,0,0-2.423.484A6.007,6.007,0,0,0,4.366,4.339,6.929,6.929,0,0,0,3.019,6.332a5.547,5.547,0,0,0-.484,2.423,6.746,6.746,0,0,0,.484,2.423,5.779,5.779,0,0,0,1.346,1.992,6.825,6.825,0,0,0,1.966,1.346A5.85,5.85,0,0,0,8.755,15Z" transform="translate(-0.01 -0.01)" fill="#93a1af"/>
</svg>
