<svg xmlns="http://www.w3.org/2000/svg" width="22.878" height="23.5" viewBox="0 0 22.878 23.5">
  <g id="Settings_icon" transform="translate(-1.81 -1.529)">
    <path id="Path_99" data-name="Path 99" d="M22.5,13.918V12.63l1.616-1.414a1.683,1.683,0,0,0,.32-2.145L22.451,5.7a1.7,1.7,0,0,0-1.994-.757l-2.046.69a9.551,9.551,0,0,0-1.1-.632l-.43-2.121A1.683,1.683,0,0,0,15.2,1.529H11.257A1.683,1.683,0,0,0,9.574,2.885l-.43,2.121a9.662,9.662,0,0,0-1.111.632l-2-.724a1.683,1.683,0,0,0-.536-.05A1.683,1.683,0,0,0,4.039,5.7L2.051,9.071A1.683,1.683,0,0,0,2.4,11.183l1.591,1.457v1.287L2.4,15.34a1.683,1.683,0,0,0-.346,2.147l1.986,3.366a1.7,1.7,0,0,0,1.994.757l2.046-.69a9.551,9.551,0,0,0,1.1.632l.43,2.121a1.683,1.683,0,0,0,1.683,1.356h3.972a1.683,1.683,0,0,0,1.683-1.356l.43-2.121a9.661,9.661,0,0,0,1.111-.632l2.037.69a1.7,1.7,0,0,0,1.994-.757l1.919-3.366a1.683,1.683,0,0,0-.344-2.112Zm-1.507,6.093-2.887-.976a7.456,7.456,0,0,1-2.28,1.321l-.6,3.022H11.258l-.6-2.987A7.877,7.877,0,0,1,8.389,19.07l-2.9.941L3.508,16.645,5.8,14.625a7.49,7.49,0,0,1,0-2.635L3.507,9.912,5.493,6.546l2.887.976A7.456,7.456,0,0,1,10.66,6.2l.6-3.022h3.972l.6,2.987A7.877,7.877,0,0,1,18.1,7.487l2.9-.941,1.986,3.366-2.289,2.02a7.49,7.49,0,0,1,0,2.635l2.29,2.078Z" transform="translate(0)" fill="#fda92b"/>
    <path id="Path_100" data-name="Path 100" d="M12.55,17.6a5.05,5.05,0,1,1,5.05-5.05,5,5,0,0,1-5.05,5.05Zm0-8.416A3.291,3.291,0,0,0,9.183,12.55a3.291,3.291,0,0,0,3.366,3.366,3.291,3.291,0,0,0,3.366-3.366A3.291,3.291,0,0,0,12.55,9.183Z" transform="translate(0.695 0.729)" fill="#fda92b"/>
  </g>
</svg>
