<svg xmlns="http://www.w3.org/2000/svg" width="38" height="38" viewBox="0 0 38 38">
  <g id="StudyTitle_icon" transform="translate(-33 -280.5)">
    <circle id="Ellipse_8" data-name="Ellipse 8" cx="19" cy="19" r="19" transform="translate(33 280.5)" fill="#93a1af"/>
    <path id="book" d="M4.766,18.75H21.75V.75H4.719A2.853,2.853,0,0,0,1.875,3.594V20.168h0c0,.007,0,.014,0,.021A3,3,0,0,0,4.719,23.25H21.75v-1.5H4.719a1.524,1.524,0,0,1-1.344-1.561A1.435,1.435,0,0,1,4.766,18.75ZM16.875,2.266v8.1L14.606,8.375l-2.231,1.98V2.266Zm-6-.016V12.375h1.483l2.254-2,2.277,2h1.486V2.25H20.25v15H6.379l0-15Zm-6.156,0h.156l0,15H4.766a2.8,2.8,0,0,0-1.391.37V3.605A1.351,1.351,0,0,1,4.719,2.25Z" transform="translate(40.188 287.5)" fill="#fff"/>
  </g>
</svg>
