<svg xmlns="http://www.w3.org/2000/svg" width="38" height="38" viewBox="0 0 38 38">
  <g id="Study_icon" transform="translate(-21 -129)">
    <circle id="Ellipse_6" data-name="Ellipse 6" cx="19" cy="19" r="19" transform="translate(21 129)" fill="#93a1af"/>
    <g id="Group_29" data-name="Group 29" transform="translate(-52 -163.25)">
      <path id="Subtraction_1" data-name="Subtraction 1" d="M15.3,23.8H3.4A3.4,3.4,0,0,1,0,20.4V3.4A3.4,3.4,0,0,1,3.4,0H8.288A.213.213,0,0,1,8.5.212V7.651a2.553,2.553,0,0,0,2.551,2.55H18.49a.213.213,0,0,1,.212.212V20.4A3.4,3.4,0,0,1,15.3,23.8ZM3.4,19.268a1.134,1.134,0,0,0,0,2.267h6.8a1.134,1.134,0,1,0,0-2.267Zm0-3.778a1.134,1.134,0,0,0,0,2.267H15.49a1.134,1.134,0,1,0,0-2.267Zm0-3.777a1.133,1.133,0,1,0,0,2.266H15.49a1.133,1.133,0,1,0,0-2.266Z" transform="translate(83 298.5)" fill="#fff"/>
      <path id="Path_28" data-name="Path 28" d="M26.946,10.779l-7.64-7.64a.107.107,0,0,0-.181.075v6.9a.85.85,0,0,0,.85.85h6.9a.107.107,0,0,0,.075-.181Z" transform="translate(74.454 296.04)" fill="#fff"/>
    </g>
  </g>
</svg>
