<svg xmlns="http://www.w3.org/2000/svg" width="15.017" height="17" viewBox="0 0 15.017 17">
  <path id="StudyTotal_icon" d="M4.059,14.35H16.892V.75H4.024A2.156,2.156,0,0,0,1.875,2.9V15.421h0c0,.005,0,.011,0,.016A2.265,2.265,0,0,0,4.024,17.75H16.892V16.617H4.024a1.151,1.151,0,0,1-1.015-1.179A1.084,1.084,0,0,1,4.059,14.35ZM13.208,1.9V8.016L11.494,6.511l-1.686,1.5V1.9ZM8.675,1.883v7.65H9.8l1.7-1.511,1.72,1.511h1.123V1.883h1.417V13.217H5.278l0-11.333Zm-4.651,0h.118l0,11.333H4.059a2.118,2.118,0,0,0-1.051.28V2.907A1.021,1.021,0,0,1,4.024,1.883Z" transform="translate(-1.875 -0.75)" fill="#53acf6"/>
</svg>
