<svg xmlns="http://www.w3.org/2000/svg" width="20.468" height="20.448" viewBox="0 0 20.468 20.448">
  <path id="Zoom_icon" d="M20.088,20.068a1.279,1.279,0,0,1-1.819,0l-3.957-3.958A8.926,8.926,0,0,1,5.477,17.18,8.824,8.824,0,0,1,.71,12.423a8.9,8.9,0,0,1,0-6.966A8.917,8.917,0,0,1,2.618,2.609,9.031,9.031,0,0,1,5.476.71a8.879,8.879,0,0,1,6.956,0,9.117,9.117,0,0,1,2.858,1.9A8.862,8.862,0,0,1,17.2,5.457a8.749,8.749,0,0,1,.71,3.478,8.721,8.721,0,0,1-1.779,5.357l3.958,3.958a1.279,1.279,0,0,1,0,1.819ZM8.955,2.558a6.376,6.376,0,0,0-6.4,6.387,6.365,6.365,0,0,0,6.4,6.386,6.376,6.376,0,0,0,6.4-6.387,6.365,6.365,0,0,0-6.4-6.386Z" transform="translate(0 0)" fill="#fda92b"/>
</svg>
